<svg xmlns="http://www.w3.org/2000/svg" width="120" height="120" viewBox="0 0 180 180">
<defs>
<radialGradient id="ball" cx="30%" cy="23%" r="80%"><stop stop-color="#46e4ff"/><stop offset=".25" stop-color="#00a9d6"/><stop offset=".65" stop-color="#0076af"/><stop offset="1" stop-color="#00446f"/></radialGradient>
<linearGradient id="rod" x1="0" y1="0" x2="1" y2="1"><stop stop-color="#f4f8f9"/><stop offset=".5" stop-color="#aebec6"/><stop offset="1" stop-color="#718895"/></linearGradient>
<radialGradient id="shine"><stop stop-color="white" stop-opacity=".95"/><stop offset="1" stop-color="white" stop-opacity="0"/></radialGradient>
</defs>
<g stroke="url(#rod)" stroke-width="11" stroke-linecap="round"><path d="M40 32L88 88M149 37L88 88M21 90L88 88M33 149L88 88M151 149L88 88"/></g>
<circle cx="40" cy="32" r="25" fill="url(#ball)"/><ellipse cx="31.5" cy="21.25" rx="9.75" ry="4.75" transform="rotate(-40 31.5 21.25)" fill="url(#shine)"/><circle cx="149" cy="37" r="15" fill="url(#ball)"/><ellipse cx="143.9" cy="30.55" rx="5.8500000000000005" ry="2.85" transform="rotate(-40 143.9 30.55)" fill="url(#shine)"/><circle cx="21" cy="90" r="15" fill="url(#ball)"/><ellipse cx="15.899999999999999" cy="83.55" rx="5.8500000000000005" ry="2.85" transform="rotate(-40 15.899999999999999 83.55)" fill="url(#shine)"/><circle cx="33" cy="149" r="25" fill="url(#ball)"/><ellipse cx="24.5" cy="138.25" rx="9.75" ry="4.75" transform="rotate(-40 24.5 138.25)" fill="url(#shine)"/><circle cx="151" cy="149" r="25" fill="url(#ball)"/><ellipse cx="142.5" cy="138.25" rx="9.75" ry="4.75" transform="rotate(-40 142.5 138.25)" fill="url(#shine)"/><circle cx="90" cy="88" r="44" fill="url(#ball)"/><ellipse cx="75.03999999999999" cy="69.08" rx="17.16" ry="8.36" transform="rotate(-40 75.03999999999999 69.08)" fill="url(#shine)"/></svg>